<svg width="145" height="145" viewBox="0 0 145 145" fill="none" xmlns="http://www.w3.org/2000/svg">
<g filter="url(#filter0_d_85_502)">
<path d="M53.5 105.75V24.5L128.5 12V93.25M53.5 49.5L128.5 37" stroke="url(#paint0_linear_85_502)" stroke-width="8" stroke-linecap="round" stroke-linejoin="round"/>
<path d="M34.75 124.5C45.1053 124.5 53.5 116.105 53.5 105.75C53.5 95.3947 45.1053 87 34.75 87C24.3947 87 16 95.3947 16 105.75C16 116.105 24.3947 124.5 34.75 124.5Z" stroke="url(#paint1_linear_85_502)" stroke-width="8" stroke-linecap="round" stroke-linejoin="round"/>
<path d="M109.75 112C120.105 112 128.5 103.605 128.5 93.25C128.5 82.8947 120.105 74.5 109.75 74.5C99.3947 74.5 91 82.8947 91 93.25C91 103.605 99.3947 112 109.75 112Z" stroke="url(#paint2_linear_85_502)" stroke-width="8" stroke-linecap="round" stroke-linejoin="round"/>
</g>
<defs>
<filter id="filter0_d_85_502" x="0" y="0" width="145" height="145" filterUnits="userSpaceOnUse" color-interpolation-filters="sRGB">
<feFlood flood-opacity="0" result="BackgroundImageFix"/>
<feColorMatrix in="SourceAlpha" type="matrix" values="0 0 0 0 0 0 0 0 0 0 0 0 0 0 0 0 0 0 127 0" result="hardAlpha"/>
<feOffset dy="4"/>
<feGaussianBlur stdDeviation="6"/>
<feComposite in2="hardAlpha" operator="out"/>
<feColorMatrix type="matrix" values="0 0 0 0 0 0 0 0 0 0 0 0 0 0 0 0 0 0 0.8 0"/>
<feBlend mode="normal" in2="BackgroundImageFix" result="effect1_dropShadow_85_502"/>
<feBlend mode="normal" in="SourceGraphic" in2="effect1_dropShadow_85_502" result="shape"/>
</filter>
<linearGradient id="paint0_linear_85_502" x1="91" y1="24.1468" x2="107.723" y2="113.381" gradientUnits="userSpaceOnUse">
<stop stop-color="#FDB000"/>
<stop offset="0.519231" stop-color="#FE5D00"/>
<stop offset="1" stop-color="#E40063"/>
</linearGradient>
<linearGradient id="paint1_linear_85_502" x1="34.75" y1="91.8587" x2="40.1676" y2="127.994" gradientUnits="userSpaceOnUse">
<stop stop-color="#FDB000"/>
<stop offset="0.519231" stop-color="#FE5D00"/>
<stop offset="1" stop-color="#E40063"/>
</linearGradient>
<linearGradient id="paint2_linear_85_502" x1="109.75" y1="79.3587" x2="115.168" y2="115.494" gradientUnits="userSpaceOnUse">
<stop stop-color="#FDB000"/>
<stop offset="0.519231" stop-color="#FE5D00"/>
<stop offset="1" stop-color="#E40063"/>
</linearGradient>
</defs>
</svg>
