<svg width="150" height="151" viewBox="0 0 150 151" fill="none" xmlns="http://www.w3.org/2000/svg">
<g filter="url(#filter0_d_85_513)">
<path d="M48.3923 90.1403L42.4353 90.1894C36.1158 90.2415 30.0758 92.8019 25.644 97.3073C21.2123 101.813 18.7518 107.894 18.8039 114.214L18.9021 126.128M96.2347 75.5435C96.6183 74.333 97.3787 73.2768 98.4049 72.5289C99.4312 71.781 100.67 71.3806 101.939 71.3861C103.209 71.3916 104.444 71.8027 105.464 72.5595C106.483 73.3162 107.235 74.379 107.608 75.5928L112.069 84.2061C112.503 85.0434 113.13 85.7657 113.898 86.3134C114.666 86.8612 115.553 87.2188 116.486 87.3569L126.232 88.8016C127.486 88.7962 128.709 89.1863 129.728 89.9163C130.747 90.6464 131.509 91.6792 131.907 92.8678C132.305 94.0565 132.318 95.3403 131.944 96.5366C131.57 97.733 130.828 98.7808 129.824 99.531L122.899 106.546C122.236 107.217 121.742 108.036 121.458 108.935C121.173 109.835 121.106 110.789 121.262 111.719L122.884 121.315C123.318 122.516 123.355 123.824 122.99 125.048C122.624 126.271 121.875 127.345 120.852 128.11C119.83 128.875 118.589 129.292 117.312 129.298C116.035 129.305 114.79 128.901 113.76 128.146L104.996 123.75C104.152 123.326 103.219 123.109 102.274 123.117C101.33 123.125 100.401 123.357 99.5635 123.795L90.8734 128.334C89.8561 129.1 88.6203 129.519 87.3472 129.531C86.0742 129.543 84.8307 129.147 83.7993 128.401C82.7678 127.654 82.0026 126.597 81.6158 125.384C81.229 124.171 81.241 122.866 81.65 121.661L83.1077 112.039C83.2484 111.107 83.1656 110.154 82.8662 109.259C82.5667 108.365 82.0592 107.554 81.3853 106.894L74.4424 100.083C73.3919 99.3678 72.5976 98.3356 72.1755 97.1371C71.7534 95.9385 71.7256 94.6363 72.0963 93.4208C72.4669 92.2053 73.2164 91.1402 74.2355 90.3811C75.2545 89.6219 76.4896 89.2085 77.7603 89.2012L87.4755 87.596C88.4061 87.4426 89.287 87.0704 90.0457 86.5101C90.8044 85.9497 91.4192 85.2172 91.8395 84.3729L96.2347 75.5435Z" stroke="url(#paint0_linear_85_513)" stroke-width="10" stroke-linecap="round" stroke-linejoin="round"/>
<path d="M60.1098 66.2142C73.2696 66.1057 83.8497 55.3497 83.7412 42.19C83.6327 29.0302 72.8767 18.45 59.717 18.5585C46.5572 18.667 35.977 29.423 36.0855 42.5828C36.194 55.7426 46.95 66.3227 60.1098 66.2142Z" stroke="url(#paint1_linear_85_513)" stroke-width="10" stroke-linecap="round" stroke-linejoin="round"/>
</g>
<defs>
<filter id="filter0_d_85_513" x="-12" y="-7.99994" width="168.146" height="168.146" filterUnits="userSpaceOnUse" color-interpolation-filters="sRGB">
<feFlood flood-opacity="0" result="BackgroundImageFix"/>
<feColorMatrix in="SourceAlpha" type="matrix" values="0 0 0 0 0 0 0 0 0 0 0 0 0 0 0 0 0 0 127 0" result="hardAlpha"/>
<feOffset dy="4"/>
<feGaussianBlur stdDeviation="6"/>
<feComposite in2="hardAlpha" operator="out"/>
<feColorMatrix type="matrix" values="0 0 0 0 0 0 0 0 0 0 0 0 0 0 0 0 0 0 0.8 0"/>
<feBlend mode="normal" in2="BackgroundImageFix" result="effect1_dropShadow_85_513"/>
<feBlend mode="normal" in="SourceGraphic" in2="effect1_dropShadow_85_513" result="shape"/>
</filter>
<linearGradient id="paint0_linear_85_513" x1="75.3005" y1="79.1251" x2="80.1246" y2="135.935" gradientUnits="userSpaceOnUse">
<stop stop-color="#FDB000"/>
<stop offset="0.519231" stop-color="#FE5D00"/>
<stop offset="1" stop-color="#E40063"/>
</linearGradient>
<linearGradient id="paint1_linear_85_513" x1="59.7678" y1="24.7331" x2="67.0311" y2="70.5973" gradientUnits="userSpaceOnUse">
<stop stop-color="#FDB000"/>
<stop offset="0.519231" stop-color="#FE5D00"/>
<stop offset="1" stop-color="#E40063"/>
</linearGradient>
</defs>
</svg>
